<?xml version="1.0" encoding="UTF-8"?>
<!-- Created with Inkscape (http://www.inkscape.org/) -->
<svg width="400" height="225" version="1.1" viewBox="0 0 400 225" xmlns="http://www.w3.org/2000/svg" xmlns:cc="http://creativecommons.org/ns#" xmlns:dc="http://purl.org/dc/elements/1.1/" xmlns:rdf="http://www.w3.org/1999/02/22-rdf-syntax-ns#" xmlns:xlink="http://www.w3.org/1999/xlink">
 <metadata>
  <rdf:RDF>
   <cc:Work rdf:about="">
    <dc:format>image/svg+xml</dc:format>
    <dc:type rdf:resource="http://purl.org/dc/dcmitype/StillImage"/>
    <dc:title/>
   </cc:Work>
  </rdf:RDF>
 </metadata>
 <g>
  <path d="m200 10c-50 0-77.302 33.862-86.367 38.939s-19.969 5.5137-19.969 5.5137l-89.914 3.5977v70.855l90.969 34.113s12.744 4.7791 18.961 10.609 36.32 41.371 86.32 41.371 77.913-34.719 86.32-41.371 18.961-10.609 18.961-10.609l90.969-34.113v-70.855l-89.914-3.5977s-11.194-0.44744-19.969-5.5137-36.367-38.939-86.367-38.939z"/>
  <g fill="#fdd402">
   <ellipse cx="200" cy="112.5" rx="102.5" ry="91.25"/>
   <path d="m12.5 66.457 67.5-2.7v84.398l-67.5-25.312z"/>
   <path d="m387.5 66.457-67.5-2.7v84.398l67.5-25.312z"/>
  </g>
  <path class="st0" d="m192.5 147.1-4.5 10.05c8.55-0.9 16.5-1.35 23.7-1.35l-4.8-10.5c-4.8 0.6-9.75 1.2-14.4 1.8zm40.95-3.45c-1.65 4.35-3.45 8.7-4.95 12.75 16.8 1.2 26.85 3.9 26.85 3.9l7.8-16.5c-10.65-0.45-20.4-0.45-29.7-0.15zm-99.45 23.1c-3.6 2.55-4.5 3.75-4.8 3.75-0.15 0.15 7.8-2.85 19.95-6 11.55-3 17.25-4.05 23.55-4.95-1.05-2.4-1.8-4.8-3-7.5-19.65 5.1-30.45 11.1-35.7 14.7z" fill="#d7182a" stroke-width="1.5"/>
  <g transform="matrix(1.5,0,0,1.5,129.2,50.8)">
   <path d="M 47.1,14.2 60.7,49.5 85.9,0 60.9,32.8 47.1,1.3 33.2,32.8 8.1,0 33.2,49.5"/>
   <path d="m69.5 61.9c2.7-6.8 5.2-13.5 6.6-16.9 4.7-12.2 16.5-45 16.5-45l-32.2 65.7c-3.6-9-13.2-32.9-13.2-32.9-0.7 1.7-9.7 23.9-13.2 32.9l-32.3-65.7s11.7 32.8 16.5 44.9c1.8 4.4 5.5 13.9 8.8 22.5l2 5c2.7 6.8 4.7 12.1 4.7 12.1l6-13.5 2.9-6.7 4.9-11.1 4.3 9.9 3.1 6.9 6.2 14.5s2.4-6.3 5.5-14c0.6-2.7 1.8-5.6 2.9-8.6z"/>
  </g>
  <path class="st1" d="m231.65 163.3c-1.05 0-1.8-0.9-1.8-1.8 0-1.05 0.9-1.8 1.8-1.8s1.8 0.9 1.8 1.8-0.75 1.8-1.8 1.8zm0-3.6c-0.9 0-1.5 0.6-1.5 1.65 0 0.9 0.6 1.65 1.5 1.65s1.5-0.6 1.5-1.65c0-0.9-0.75-1.65-1.5-1.65zm-0.3 2.7h-0.3v-1.95h0.6c0.45 0 0.6 0.15 0.6 0.6s-0.15 0.45-0.45 0.6l0.6 0.9h-0.3l-0.45-0.75h-0.3zm0.3-1.35c0.15 0 0.45 0 0.45-0.3 0-0.15-0.15-0.15-0.3-0.15h-0.3v0.6h0.15z" stroke-width="1.5"/>
 </g>
</svg>
